<?xml version="1.0" encoding="utf-8"?>
<!-- Generator: Adobe Illustrator 16.0.4, SVG Export Plug-In . SVG Version: 6.00 Build 0)  -->
<!DOCTYPE svg PUBLIC "-//W3C//DTD SVG 1.1//EN" "http://www.w3.org/Graphics/SVG/1.1/DTD/svg11.dtd">
<svg version="1.1" id="Layer_1" xmlns="http://www.w3.org/2000/svg" xmlns:xlink="http://www.w3.org/1999/xlink" x="0px" y="0px"
	 width="200px" height="80.449px" viewBox="0 0 200 80.449" enable-background="new 0 0 200 80.449" xml:space="preserve">
<g id="Branding_logo">
	<g id="logo_1_">
		<g>
			<path opacity="0.6" fill="#FFA841" d="M60.258,18.685c-1.23-10.443-3.374-17.367-5.815-17.367c-1.381,0-2.669,2.226-3.748,6.044
				c2.031,3.266,4.261,8.388,6.386,14.731C58.167,20.857,59.227,19.72,60.258,18.685z"/>
			<path opacity="0.6" fill="#FFA841" d="M48.63,59.515c1.229,10.445,3.373,17.367,5.813,17.367c1.382,0,2.669-2.224,3.747-6.044
				c-2.031-3.266-4.261-8.386-6.386-14.729C50.72,57.345,49.66,58.479,48.63,59.515z"/>
			<path opacity="0.6" fill="#FFA841" d="M44.376,23.515c-7.158-2.375-12.447-2.063-13.382,1.382
				c-0.707,2.599,1.201,6.498,4.857,10.722c2.626-1.698,5.927-3.268,9.664-4.562C45.052,28.427,44.671,25.898,44.376,23.515z"/>
			<path opacity="0.6" fill="#FFA841" d="M64.51,54.688c7.158,2.374,12.447,2.063,13.382-1.383c0.708-2.598-1.2-6.498-4.858-10.722
				c-2.625,1.699-5.926,3.267-9.663,4.561C63.834,49.773,64.215,52.301,64.51,54.688z"/>
			<path opacity="0.6" fill="#FFA841" d="M35.851,35.618c-4.243,2.741-6.735,5.815-6.481,8.595c0.288,3.147,4.039,5.252,9.698,6.009
				c1.08-2.464,2.384-5.093,3.886-7.811C40.183,40.152,37.776,37.84,35.851,35.618z"/>
			<path opacity="0.6" fill="#FFA841" d="M79.517,33.988c-0.289-3.151-4.039-5.254-9.698-6.009
				c-1.079,2.461-2.385,5.095-3.886,7.812c2.771,2.26,5.178,4.572,7.102,6.793C77.278,39.841,79.771,36.767,79.517,33.988z"/>
			<path opacity="0.6" fill="#FFA841" d="M69.818,27.979c3.11-7.102,4.328-12.8,2.852-15.087c-1.694-2.627-6.521-0.13-12.412,5.792
				c0.33,2.812,0.597,5.872,0.784,9.127C64.266,27.569,67.239,27.635,69.818,27.979z"/>
			<path opacity="0.6" fill="#FFA841" d="M39.068,50.222c-3.11,7.104-4.329,12.8-2.851,15.09c1.693,2.622,6.52,0.126,12.413-5.797
				c-0.333-2.808-0.599-5.87-0.784-9.124C44.618,50.633,41.647,50.567,39.068,50.222z"/>
			<path opacity="0.6" fill="#FFA841" d="M61.24,32.266c-0.051-1.517-0.116-3.005-0.198-4.453c-0.695,0.052-1.401,0.12-2.117,0.203
				c0.312,1.077,0.621,2.181,0.922,3.305C60.317,31.631,60.783,31.948,61.24,32.266z"/>
			<path opacity="0.6" fill="#FFA841" d="M47.646,45.936c0.049,1.515,0.116,3.006,0.2,4.455c0.693-0.053,1.399-0.124,2.115-0.207
				c-0.312-1.074-0.621-2.177-0.922-3.301C48.569,46.569,48.104,46.255,47.646,45.936z"/>
			<path opacity="0.6" fill="#FFA841" d="M61.347,37.285c0.36,1.533,0.693,3.051,1.005,4.551c1.287-2.041,2.486-4.063,3.58-6.045
				c-1.469-1.196-3.04-2.379-4.692-3.525C61.295,33.904,61.332,35.577,61.347,37.285z"/>
			<path opacity="0.6" fill="#FFA841" d="M46.534,36.366c-1.287,2.037-2.486,4.063-3.58,6.045c1.469,1.197,3.04,2.378,4.692,3.524
				c-0.056-1.64-0.092-3.312-0.107-5.018C47.181,39.382,46.846,37.862,46.534,36.366z"/>
			<path opacity="0.6" fill="#FFA841" d="M50.696,7.363c-1.892-3.038-3.609-4.473-4.909-3.767
				c-2.339,1.273-2.739,9.152-1.411,19.918c1.175,0.387,2.397,0.854,3.661,1.386C48.575,17.666,49.509,11.552,50.696,7.363z"/>
			<path opacity="0.6" fill="#FFA841" d="M58.19,70.838c1.892,3.038,3.609,4.473,4.909,3.769c2.338-1.275,2.741-9.154,1.411-19.918
				c-1.175-0.392-2.398-0.854-3.661-1.387C60.312,60.536,59.378,66.65,58.19,70.838z"/>
			<path opacity="0.6" fill="#FFA841" d="M55.979,50.995c1.67,0.875,3.299,1.646,4.87,2.307c0.131-1.751,0.236-3.569,0.317-5.439
				c-1.157,0.35-2.347,0.674-3.566,0.967C57.059,49.571,56.519,50.293,55.979,50.995z"/>
			<path opacity="0.6" fill="#FFA841" d="M52.907,27.204c-1.67-0.873-3.3-1.645-4.87-2.303c-0.131,1.751-0.236,3.568-0.317,5.44
				c1.157-0.351,2.347-0.675,3.567-0.969C51.827,28.631,52.366,27.908,52.907,27.204z"/>
			<path opacity="0.6" fill="#FFA841" d="M61.167,47.862c0.75-0.229,1.485-0.468,2.205-0.718c-0.306-1.729-0.645-3.503-1.02-5.309
				c-0.342,0.539-0.69,1.082-1.042,1.623C61.277,44.954,61.23,46.422,61.167,47.862z"/>
			<path opacity="0.6" fill="#FFA841" d="M47.72,30.341c-0.751,0.227-1.487,0.468-2.205,0.715c0.304,1.731,0.644,3.505,1.019,5.311
				c0.342-0.542,0.69-1.084,1.044-1.626C47.609,33.248,47.658,31.776,47.72,30.341z"/>
			<path opacity="0.6" fill="#FFA841" d="M49.961,50.184c0.602,2.071,1.217,4.05,1.843,5.925c1.366-1.559,2.766-3.27,4.175-5.113
				c-0.8-0.417-1.608-0.862-2.425-1.327C52.334,49.88,51.136,50.052,49.961,50.184z"/>
			<path opacity="0.6" fill="#FFA841" d="M58.925,28.015c-0.602-2.069-1.217-4.05-1.843-5.921c-1.366,1.557-2.765,3.27-4.175,5.109
				c0.8,0.42,1.608,0.864,2.425,1.331C56.552,28.321,57.752,28.147,58.925,28.015z"/>
			<path opacity="0.6" fill="#FFA841" d="M59.847,31.32c-0.916-0.606-1.848-1.202-2.806-1.783c-0.572-0.347-1.143-0.679-1.709-1.003
				c-0.604,0.104-1.211,0.216-1.824,0.342c-0.751,0.153-1.491,0.319-2.221,0.495c-0.547,0.748-1.094,1.51-1.639,2.295
				c-0.71,1.023-1.399,2.048-2.069,3.073c-0.031,1.434-0.047,2.886-0.047,4.361c0,0.609,0.001,1.214,0.008,1.816
				c0.132,0.569,0.268,1.139,0.408,1.711c0.354,1.449,0.719,2.865,1.092,4.254c0.914,0.604,1.848,1.202,2.806,1.782
				c0.573,0.346,1.142,0.677,1.709,1.003c0.605-0.104,1.211-0.219,1.824-0.343c0.751-0.151,1.49-0.319,2.222-0.496
				c0.545-0.749,1.091-1.513,1.638-2.296c0.711-1.022,1.401-2.052,2.071-3.074c0.029-1.43,0.045-2.882,0.045-4.357
				c0-0.61-0.001-1.217-0.008-1.816c-0.132-0.572-0.27-1.142-0.41-1.715C60.585,34.12,60.221,32.708,59.847,31.32z"/>
		</g>
		<g>
			<g>
				<path id="Bird_2_" fill="#38D3D5" stroke="#00A9D5" stroke-width="0.0532" stroke-miterlimit="10" d="M2.744,64.496
					c0,0,2.372-2.086,3.276-2.496c0.9-0.41,0.937-0.447,1.003-1.879c0.066-1.433,1.97-2.413,2.139-2.413
					c0.167,0,1.972-1.104,4.412,0c2.44,1.104,2.875,1.022,2.875,1.022s0.635,0.57,0.233-1.843c-0.4-2.413-2.14-5.601-2.14-5.601
					l-3.109-4.825c0,0-0.267-0.652-0.368-1.308c-0.101-0.654-0.099-3.886-0.033-5.725c0.067-1.84,0.067-3.024,0.067-3.024
					s0.033-0.861,0.399-0.329c0.369,0.531-0.098-1.513,0.036-1.677c0.132-0.162,0.166-0.326,0.434,0
					c0.267,0.328-0.368-1.307,0-1.227c0.368,0.082,0.467-0.037,0.401-0.899c-0.068-0.857-0.068-2.084-0.068-2.084
					s0-0.861,0.402-0.412c0.4,0.452-0.201-1.47,0.033-2.165c0.233-0.695,0.3-1.021,0.367-0.245c0.067,0.775-0.268-2.658,0.134-2.168
					c0.401,0.493,0.401,0.286,0.368-1.226c-0.034-1.513,0.233-0.818,0.4-0.368c0.167,0.45-0.333-2.249,0.167-1.638
					c0.501,0.614,0.603,0.432,0.936-0.089c0.336-0.521,0.77-1.625,0.77-1.625s0.536-0.409,0-2.575
					c-0.537-2.167,0.77-5.523,1.103-1.025c0.334,4.5,0.202,3.15,0.202,3.15s0.233,2.373,0.434,2.208
					c0.2-0.165,0.435,0.695,0.902-2.167c0.468-2.863,0.435-1.43,0.569-1.064c0.133,0.369,0.133-1.102,0.201-1.266
					c0.066-0.164,0.334,0.041,0.334,0.041s-0.402-3.513,0-3.128c0.4,0.389,0.334,1.125,0.301-0.226
					c-0.033-1.351-0.099-2.617,0.167-1.962c0.267,0.654,0.401-1.595,0.401-2.044s0.134-1.309,0.535-0.45
					c0.4,0.859,0.702-0.409,0.668-0.573s0-2.413,0.534-1.43c0.535,0.979-0.567-2.618,0-2.987c0.57-0.366,0.871-1.552,1.27-0.286
					c0.404,1.268-0.03,1.065,0.236,1.801c0.266,0.733,0.334,1.471,0.468,1.716c0.134,0.244,0.033,0.533,0.401-0.205
					c0.367-0.736,0.434-1.511,0.567-0.816c0.134,0.692,0.469,0.776,0.435-0.288c-0.035-1.062-0.066-2.904,0.502-1.759
					c0.567,1.147-0.735-3.514,0.5-2.084c0,0,1.773-0.45,1.74,1.226c-0.035,1.677,2.004-2.004,1.001,3.271
					c-1.001,5.273,0.523,1.104,0.277,1.719c-0.242,0.614,2.03-3.434-0.309,2.779c0,0-0.636,0.901-0.436,2.208
					c0.201,1.309,0.401,2.615,0.201,3.108c-0.201,0.489-0.167,0.939-0.201,1.472c-0.033,0.531,1.103-1.799-0.534,3.188
					c0,0,0.534,1.105,0,1.842c-0.535,0.733-0.134,2.125-0.134,2.125s0.468,1.145-0.033,2.985c-0.501,1.841-0.2,2.902-0.2,3.231
					c0,0.326,0.634,1.144,0.535,2.288c-0.101,1.147,0.936,0.614,0.301,2.453c-0.636,1.842,1.069-0.654,0.401,2.903
					c-0.669,3.558,1.337-2.127,0.5,3.436c0,0,0.871-1.311,0.437,1.717c-0.435,3.024,0.261,3.231,0.232,3.558
					c-0.032,0.327,0.668,2.085,0.737,2.249c0.068,0.164,0.937,2.043,3.511,2.861c2.574,0.819,2.206,0.819,2.475,2.412
					c0.267,1.596-0.068,2.169,0,3.066c0.066,0.9,0.467,1.597,2.64,0.49c2.174-1.103,1.505-0.938,1.505-0.938l1.604-0.613
					l2.139-0.859c0,0,0.869-0.653,1.069-0.611c0.202,0.039,1.54-0.247,1.54-0.247s2.705-1.351,1.068,0.205
					c-1.637,1.554,0,1.146,0,1.146s3.443-0.941,1.271,0.082c-2.173,1.021-1.069,1.103-1.069,1.103l0.467,0.448l0.368,0.45
					c0,0,2.239,0.41,1.271,0.861c-0.97,0.448-1.604,0.285-1.604,0.654c0,0.366-0.068,0.897-0.035,1.062
					c0.035,0.165,0.201,0.039,0.501,0.406c0.301,0.369,1.538,0.983,0.702,1.312c-0.835,0.326,0.836,2.37-0.132,1.756
					c-0.97-0.61-1.538-1.389-1.705-1.349c-0.168,0.042-1.036-0.039-1.271,0.042c-0.235,0.082-0.702,0.531-0.702,0.531
					s-0.333,0.271-0.333,0.893c0,0.62,0.5,1.682,0.5,1.682l0.468,0.738c0,0,0.802,1.104-0.334,0.939
					c-1.136-0.163-1.204,0.02-1.204,0.02s-0.401,0.228-0.233,0.84c0.167,0.612-0.47,0.409-0.938,0.369
					c-0.466-0.043-0.9-0.289-0.9-0.289s0.266,0.739-0.234,1.064c-0.502,0.327-1.672,0.449-2.106,0.366
					c-0.436-0.08-1.238,0.207-1.503,0.207c-0.27,0,0.199,0.165,0.5,1.188c0.302,1.021,0.702,1.349,0.702,1.635
					c0,0.285,1.036,2.205,1.036,2.205l0.869,0.86l1.17,1.513l0.267,0.531c0,0,0.101-0.244-0.301,0
					c-0.399,0.243-1.068,0.451-1.637,0.243c-0.567-0.202-0.97-0.202-0.97-0.202s-0.568-1.188-0.568-1.433
					c0-0.244-0.969-2.533-0.969-2.533l-0.936-2.332l-0.836-1.47l-0.768-0.983c0,0,0.535-0.94-0.703-0.817
					c-1.235,0.123-5.783-0.244-5.783-0.244l-1.804,0.283l-3.276-0.323l-4.747-0.081l-4.712-1.597l-4.113-1.76L9.799,64.7
					l-2.908-0.164l-1.771-0.122L2.744,64.496z"/>
				<path id="Bird_wing_2_" fill="#38D3D5" stroke="#00A9D5" stroke-width="2" stroke-miterlimit="10" d="M33.965,61.349
					c0,0-2.91-3.069-3.912-3.437c-1.002-0.368-2.409-2.698-2.607-3.679c-0.201-0.983,0.176-4.662-0.464-3.805
					c-0.639,0.858-0.94-1.72-1.041-2.451c-0.1-0.738,0.268-2.373-1.002-0.859c0,0,0.835-4.049-0.168-2.618
					c-1.002,1.431,0.703-4.417-0.602-3.148c-1.302,1.269,0.636-3.721-0.736-2.657c-1.37,1.063-0.602-5.316-1.603-6.421
					c-1.003-1.104,1.537-12.635-0.301-9.279c-1.839,3.353,1.403-6.092-0.569-2.782c-1.973,3.312,1.626-6.584-1.314-1.064
					C16.705,24.669,23,14.446,19,18.003v-0.449l-0.833,2.535"/>
			</g>
			
				<line fill="none" stroke="#4ECEE9" stroke-width="0.4523" stroke-miterlimit="10" x1="77.892" y1="53.306" x2="112.34" y2="53.946"/>
			<line fill="none" stroke="#4ECEE9" stroke-width="2" stroke-miterlimit="10" x1="79" y1="26.077" x2="123" y2="26.077"/>
			<line fill="none" stroke="#4ECEE9" stroke-width="2" stroke-miterlimit="10" x1="30" y1="26.077" x2="29" y2="26.077"/>
		</g>
		<g>
			<path fill="#A5FAA8" stroke="#73FBD5" stroke-width="2.2264" stroke-miterlimit="10" d="M107.838,32.743l8.578,27.838H113.3
				l-2.782-9.08h-7.811l-2.877,9.08h-1.53l8.777-27.838H107.838z M103.243,49.735h6.709l-3.305-10.751L103.243,49.735z"/>
			<path fill="#A5FAA8" stroke="#73FBD5" stroke-width="2.2264" stroke-miterlimit="10" d="M119.611,28.867
				c0.218,0,0.425,0.051,0.618,0.16c0.197,0.117,0.37,0.26,0.511,0.448c0.146,0.191,0.26,0.41,0.349,0.664
				c0.082,0.254,0.128,0.524,0.128,0.813c0,0.282-0.046,0.559-0.128,0.809c-0.089,0.258-0.203,0.478-0.349,0.665
				c-0.141,0.193-0.313,0.337-0.511,0.451c-0.193,0.109-0.4,0.162-0.618,0.162c-0.221,0-0.424-0.053-0.617-0.162
				c-0.189-0.114-0.358-0.258-0.503-0.451c-0.146-0.188-0.259-0.407-0.346-0.665c-0.09-0.25-0.133-0.526-0.133-0.809
				c0-0.289,0.043-0.56,0.133-0.813c0.087-0.254,0.2-0.473,0.346-0.664c0.145-0.188,0.313-0.331,0.503-0.448
				C119.188,28.918,119.391,28.867,119.611,28.867z M118.25,40.367l1.959-1.195h0.812v21.409h-2.771V40.367z"/>
			<path fill="#A5FAA8" stroke="#73FBD5" stroke-width="2.2264" stroke-miterlimit="10" d="M124.422,39.604h2.771v3.962
				c0.272-0.588,0.566-1.142,0.883-1.678c0.311-0.537,0.638-1.008,0.977-1.406c0.339-0.404,0.688-0.722,1.055-0.958
				c0.364-0.237,0.731-0.353,1.103-0.353c0.31,0,0.588,0.07,0.85,0.208c0.266,0.139,0.496,0.316,0.692,0.549
				c0.193,0.226,0.346,0.489,0.46,0.794c0.115,0.308,0.174,0.629,0.174,0.971c0,0.681-0.143,1.193-0.43,1.532
				c-0.278,0.351-0.674,0.514-1.18,0.514c-0.32,0-0.566-0.046-0.75-0.139c-0.189-0.099-0.36-0.209-0.51-0.336
				c-0.156-0.125-0.311-0.235-0.469-0.333c-0.156-0.093-0.35-0.144-0.59-0.144c-0.179,0-0.362,0.081-0.557,0.241
				c-0.187,0.168-0.375,0.388-0.563,0.688c-0.185,0.292-0.376,0.634-0.569,1.038c-0.188,0.391-0.38,0.831-0.575,1.295v14.531h-2.771
				V39.604z"/>
			<path fill="#A5FAA8" stroke="#73FBD5" stroke-width="2.2264" stroke-miterlimit="10" d="M136.632,33.372l5.424,20.686
				l4.788-18.672l4.944,18.753l5.298-20.767h1.507l-7.013,27.442h-0.927l-4.49-16.972l-4.325,16.972h-1.051l-7.231-27.442H136.632z"
				/>
			<path fill="#A5FAA8" stroke="#73FBD5" stroke-width="2.2264" stroke-miterlimit="10" d="M169.83,60.581h-2.8v-2.873
				c-0.329,0.375-0.657,0.766-0.975,1.152c-0.318,0.392-0.662,0.745-1.032,1.065c-0.371,0.336-0.782,0.604-1.229,0.803
				c-0.447,0.194-0.975,0.301-1.568,0.301c-0.549,0-1.047-0.133-1.491-0.402c-0.438-0.261-0.821-0.629-1.135-1.096
				c-0.313-0.474-0.554-1.032-0.723-1.668c-0.161-0.633-0.247-1.326-0.247-2.068c0-0.9,0.12-1.708,0.358-2.433
				c0.24-0.722,0.568-1.367,0.982-1.944c0.416-0.578,0.899-1.082,1.451-1.521c0.557-0.438,1.143-0.836,1.761-1.193
				c0.617-0.354,1.26-0.664,1.916-0.935c0.661-0.271,1.305-0.53,1.931-0.762v-1.31c0-0.95-0.062-1.751-0.188-2.413
				c-0.13-0.658-0.306-1.183-0.542-1.591c-0.234-0.402-0.521-0.694-0.861-0.872c-0.331-0.172-0.711-0.267-1.126-0.267
				c-0.473,0-0.854,0.095-1.151,0.279c-0.297,0.185-0.533,0.426-0.702,0.721c-0.17,0.299-0.286,0.639-0.343,1.029
				c-0.063,0.384-0.097,0.77-0.097,1.155c0,0.369-0.02,0.722-0.058,1.06c-0.038,0.341-0.112,0.634-0.214,0.889
				c-0.107,0.255-0.248,0.454-0.428,0.612c-0.175,0.16-0.406,0.235-0.685,0.235c-0.219,0-0.418-0.057-0.599-0.185
				c-0.174-0.121-0.328-0.293-0.464-0.514c-0.131-0.226-0.231-0.482-0.302-0.783c-0.072-0.299-0.104-0.63-0.104-0.98
				c0-0.692,0.155-1.326,0.461-1.924c0.306-0.601,0.714-1.125,1.229-1.563c0.513-0.432,1.119-0.771,1.806-1.033
				c0.692-0.254,1.415-0.381,2.171-0.381c0.928,0,1.703,0.135,2.341,0.405c0.638,0.266,1.153,0.641,1.545,1.119
				c0.392,0.483,0.675,1.071,0.85,1.764c0.175,0.687,0.262,1.447,0.262,2.277V60.581z M167.03,48.35
				c-0.402,0.204-0.819,0.417-1.251,0.67c-0.433,0.247-0.853,0.525-1.269,0.83c-0.411,0.3-0.807,0.635-1.184,0.99
				c-0.376,0.365-0.702,0.74-0.989,1.15c-0.28,0.402-0.505,0.828-0.671,1.283c-0.167,0.457-0.247,0.937-0.247,1.427
				c0,0.507,0.06,0.997,0.189,1.457c0.122,0.46,0.292,0.864,0.507,1.211c0.203,0.346,0.449,0.615,0.725,0.82
				c0.269,0.199,0.556,0.304,0.853,0.304c0.314,0,0.616-0.062,0.895-0.183c0.284-0.127,0.562-0.297,0.829-0.505
				c0.266-0.205,0.532-0.448,0.794-0.735c0.268-0.276,0.541-0.573,0.819-0.884V48.35z"/>
			<path fill="#A5FAA8" stroke="#73FBD5" stroke-width="2.2264" stroke-miterlimit="10" d="M171.49,39.623h3.181l5.426,15.14
				l4.421-15.14h1.495l-7.172,24.636c-0.304,1.025-0.654,1.914-1.047,2.668c-0.391,0.756-0.807,1.379-1.249,1.867
				c-0.438,0.492-0.889,0.846-1.354,1.097c-0.458,0.235-0.913,0.358-1.356,0.358c-0.308,0-0.596-0.058-0.873-0.175
				c-0.274-0.115-0.512-0.282-0.719-0.501c-0.204-0.212-0.362-0.475-0.481-0.773c-0.118-0.293-0.178-0.621-0.178-0.975
				c0-0.286,0.033-0.569,0.113-0.846c0.082-0.285,0.192-0.526,0.339-0.733c0.142-0.207,0.317-0.38,0.524-0.508
				c0.199-0.134,0.431-0.193,0.683-0.193c0.299,0,0.533,0.044,0.698,0.144c0.175,0.098,0.329,0.212,0.467,0.328
				c0.142,0.126,0.286,0.234,0.449,0.335c0.156,0.099,0.368,0.149,0.638,0.149c0.291,0,0.543-0.123,0.772-0.37
				c0.227-0.253,0.431-0.561,0.614-0.929c0.18-0.374,0.343-0.779,0.482-1.221c0.141-0.444,0.265-0.854,0.382-1.235l0.94-3.141
				L171.49,39.623z"/>
			<path fill="#A5FAA8" stroke="#73FBD5" stroke-width="2.2264" stroke-miterlimit="10" d="M192.254,59.582
				c0.382,0,0.733-0.086,1.058-0.261c0.319-0.178,0.603-0.408,0.831-0.69c0.232-0.29,0.412-0.621,0.544-0.997
				c0.131-0.381,0.194-0.762,0.194-1.154c0-0.632-0.105-1.199-0.319-1.671c-0.211-0.479-0.497-0.899-0.853-1.293
				c-0.353-0.385-0.757-0.731-1.207-1.042c-0.453-0.311-0.914-0.636-1.38-0.964c-0.468-0.333-0.923-0.69-1.382-1.077
				c-0.454-0.381-0.858-0.825-1.209-1.327c-0.356-0.5-0.639-1.076-0.85-1.739c-0.216-0.653-0.321-1.438-0.321-2.334
				c0-0.848,0.121-1.622,0.358-2.341c0.24-0.717,0.574-1.34,0.999-1.857c0.416-0.525,0.924-0.929,1.512-1.221
				c0.588-0.295,1.234-0.441,1.931-0.441c0.464,0,0.896,0.048,1.311,0.146c0.407,0.097,0.806,0.295,1.193,0.571
				c0.391,0.276,0.776,0.665,1.169,1.176c0.386,0.506,0.792,1.176,1.209,1.994l-1.021,1.364c-0.532-1.302-1.125-2.27-1.791-2.904
				c-0.651-0.639-1.358-0.965-2.108-0.965c-0.393,0-0.756,0.083-1.087,0.233c-0.328,0.15-0.615,0.345-0.85,0.599
				c-0.231,0.254-0.419,0.554-0.55,0.896c-0.131,0.333-0.197,0.696-0.197,1.071c0,0.621,0.121,1.168,0.359,1.643
				c0.232,0.472,0.541,0.886,0.927,1.263c0.383,0.38,0.818,0.732,1.304,1.056c0.488,0.311,0.995,0.638,1.508,0.969
				c0.515,0.334,1.018,0.691,1.503,1.064c0.49,0.382,0.924,0.819,1.311,1.321c0.385,0.502,0.693,1.077,0.926,1.741
				c0.237,0.657,0.354,1.418,0.354,2.29c0,0.887-0.106,1.718-0.333,2.489c-0.223,0.778-0.556,1.447-0.998,2.011
				c-0.446,0.566-1.01,1.017-1.681,1.339c-0.68,0.334-1.468,0.49-2.362,0.49c-0.41,0-0.835-0.046-1.269-0.145
				c-0.428-0.099-0.864-0.289-1.305-0.565c-0.438-0.283-0.881-0.673-1.319-1.183c-0.445-0.506-0.87-1.169-1.291-1.994l1.135-1.543
				c0.343,0.713,0.672,1.324,0.985,1.826s0.632,0.911,0.951,1.232c0.316,0.317,0.646,0.555,0.991,0.698
				C191.483,59.512,191.851,59.582,192.254,59.582z"/>
		</g>
		
			<line fill="none" stroke="#4ECFE9" stroke-width="1.8845" stroke-miterlimit="10" x1="36.694" y1="54.638" x2="36.694" y2="54.638"/>
		<line fill="none" stroke="#4ECEE9" stroke-width="2" stroke-miterlimit="10" x1="67" y1="68.077" x2="125" y2="68.077"/>
	</g>
</g>
</svg>
