<?xml version="1.0" encoding="utf-8"?>
<!-- Generator: Adobe Illustrator 16.0.4, SVG Export Plug-In . SVG Version: 6.00 Build 0)  -->
<!DOCTYPE svg PUBLIC "-//W3C//DTD SVG 1.1//EN" "http://www.w3.org/Graphics/SVG/1.1/DTD/svg11.dtd">
<svg version="1.1" id="Layer_1" xmlns="http://www.w3.org/2000/svg" xmlns:xlink="http://www.w3.org/1999/xlink" x="0px" y="0px"
	 width="400px" height="200px" viewBox="0 0 400 200" enable-background="new 0 0 400 200" xml:space="preserve">
<g>
	<path fill="#FFFFFF" d="M76.271,35.889c0,0.099-0.011,0.21-0.03,0.331c-0.021,0.124-0.051,0.258-0.09,0.405l-0.962,2.58
		l0.361,3.316l-0.781,1.769l0.901,3.833l-0.661,2.727l0.541,6.339v0.442c0,0.295-0.081,0.639-0.241,1.031l-0.902,1.18l1.143,3.021
		v3.021l-0.12,4.423l-0.902,3.021l0.361,2.728l-0.12,1.621l-0.12,4.569c0,1.327-0.602,2.433-1.804,3.316l-0.24,1.18l-0.901,0.147
		v0.885l1.623,0.147l-0.12,1.842l-0.901,3.759c-0.521,2.408-0.923,3.611-1.202,3.611l-2.464,1.99l-0.722,1.18v2.728
		c-1.163,0.1-2.104,0.562-2.824,1.4l1.322,1.474l-4.928,5.159c-2.926,3.096-6.13,4.644-9.616,4.644
		c-0.361,0-0.961-0.147-1.803-0.442c-1.002,0.59-2.523,0.885-4.567,0.885h-2.344c-1.764,0-3.726-0.493-5.889-1.475
		c-0.481-1.721-1.183-2.578-2.104-2.578c-0.161,0-0.461,0.084-0.901,0.258c-0.442,0.168-0.882,0.279-1.322,0.33l-1.322,0.295
		l-2.224-1.03l-3.726-2.433l-3.426-1.475l-1.622-1.695l-1.202-1.031l-1.142-11.352v-1.031l2.344-1.99l1.021,1.548l2.163,5.896
		l2.645,2.506l2.283,2.875h1.383c2.604,2.752,4.947,4.127,7.031,4.127l1.562-0.146l1.021,1.031c0.921,1.228,1.562,1.843,1.923,1.843
		c0.52,0,1.061-0.416,1.623-1.253c0.921,0.49,1.901,0.736,2.944,0.736h2.344l3.305-0.146l2.584-1.326
		c3.765-2.605,5.949-4.816,6.55-6.634l0.602-1.843l1.862-3.611l0.361-1.99l0.841-0.885l-0.12-1.916l0.24-2.138l0.781-5.307
		l0.722-8.401l0.601-1.843l-0.12-1.843l0.12-4.201l-0.12-1.031l0.36-0.442h1.021c0.481,0.295,0.801,0.442,0.962,0.442
		c0.48,0,1.021-0.417,1.623-1.253c-1.043-1.375-2.324-2.112-3.847-2.212l-0.12-1.989l-0.601-8.182v-0.884l0.36-5.896
		c0-0.49-0.041-0.785-0.12-0.885l-0.962-2.727c-0.24,0-0.36-0.663-0.36-1.99v-0.885l0.24-4.348l0.12-2.875
		c0-0.195-0.04-0.343-0.12-0.442l-0.901-2.432c-0.161-0.59-0.24-1.105-0.24-1.548c0-0.933,0.26-2.138,0.781-3.611l0.12-1.18
		l-0.541-0.147l-0.601,0.295l-0.962-1.031c-1.002-1.08-1.502-1.843-1.502-2.285l-25.078,5.93l28.717-12.579l3.59-1.887l6.154-2.516
		L91.281,0c0,0-16.393,14.491-16.393,15.916l-0.24,3.39l-0.481,0.442c0,0.1-0.01,0.197-0.03,0.295
		c-0.021,0.1-0.051,0.197-0.09,0.295c0,0.492,0.421,0.885,1.262,1.18v2.284v1.032l-1.142,3.832c0,0.197,0.039,0.442,0.12,0.737
		l1.143,0.885l0.601,3.611L76.271,35.889z"/>
</g>
<g>
	<path fill="#0099CC" d="M120.28,84.354l-0.601,3.17l0.241,3.611c-0.12,1.868-0.582,3.269-1.383,4.201l-0.961,1.547l-2.464,0.737
		c-0.241,0.295-0.481,1.008-0.722,2.138l0.24,0.295h0.602l-0.361-0.958l1.202,1.105l-0.601,1.03l-0.36,1.844l-0.962,1.916
		l-1.382,2.433l-4.688,3.611l-2.344,4.569l-2.044,1.77l-4.086,5.307c-1.043,1.131-1.944,1.818-2.705,2.063l-4.447,1.843
		l-1.082,0.589c0,0.935-0.201,1.647-0.601,2.138l-1.263,0.59l-7.031,4.201l-4.267,3.392c-1.403,1.081-2.765,1.621-4.086,1.621
		c-0.481,0-1.103-0.245-1.863-0.738c-0.762,0.59-2.305,1.354-4.628,2.285l-3.485,1.328l-2.344,0.588l-4.928,0.442l-1.322,0.295
		l-3.185-1.475c-1.604,1.08-3.125,1.67-4.567,1.77l-0.361-0.59c-1.081,0-1.982-0.395-2.704-1.18l-2.224-0.295v1.77
		c-1.362,0.933-2.764,1.4-4.206,1.4c-0.923,0-1.863-0.148-2.825-0.443c-3.365-1.131-8.337,0.381-8.818,0.381
		c-0.923,0-24.102,1.021-24.102,0.629l25.64-6.918l1.539-1.258l0.933,2.744c1.402-0.49,2.224-0.735,2.464-0.735l0.481,0.146
		l1.021-1.326c0.721-0.98,1.081-1.646,1.081-1.99v-2.284l0.722-3.168l0.12-1.476v-0.885l0.781-0.662
		c-0.601-0.785-0.901-1.695-0.901-2.728l0.301-4.349l0.12-1.99l1.322-1.621c-0.481-0.885-0.722-1.549-0.722-1.99l-0.12-2.357
		l-0.781-1.844l0.181-4.201v-5.158l0.961-2.433c0.159-0.785,0.24-1.327,0.24-1.622c0-0.834-0.461-1.646-1.382-2.432l-0.12-2.875
		v-1.326c0-0.59,0.421-1.253,1.262-1.99l0.12-4.054h-1.502l-0.36-1.548l0.24-3.906L35.604,73.3l0.481-1.622l-0.842-2.138
		l-0.12-7.223l-1.622-2.284l1.382-3.317l0.12-1.105l-0.36-4.201l-0.12-2.432c-0.882-0.147-1.704-0.442-2.464-0.885l-1.623-0.737
		l-3.77,2.331l-6.154-8.176l16.715,2.677l2.584-1.4c0.76-0.393,1.822-0.59,3.186-0.59l3.966-0.146l2.164,0.884l1.502-0.59
		l1.082,0.812h1.982l2.344,0.147l2.224,0.294h0.12l1.983-0.441l4.026,1.621l4.808,0.147l1.623,0.885l6.73,0.958l4.087,1.474
		l4.808,1.032l3.305,1.4l1.382,0.589l-0.24,1.548l0.721,0.885l-0.48,0.885l0.24,0.295l-0.36,0.589l0.36-0.147l2.104-0.884
		l1.683-0.59l1.502,0.59l2.224,0.736l1.322,1.106l0.12,1.621l0.541,0.147l2.284-0.147c0.76,0,1.623,0.86,2.584,2.579h0.901
		c1.041,0,2.604,0.911,4.688,2.728c2.243,1.868,4.125,4.079,5.648,6.633l-0.901,1.032l0.181,1.105l0.721,1.474l1.202,1.032
		c0.399,0.59,0.781,1.721,1.142,3.391c-0.762,0.395-1.142,0.884-1.142,1.474c0,0.295,0.039,0.492,0.12,0.59l1.743,3.169
		C120.199,83.496,120.28,83.912,120.28,84.354z M109.342,82.807c-0.762-0.393-1.242-0.773-1.442-1.142
		c-0.201-0.369-0.341-1.043-0.421-2.027l-0.48-0.147v-0.885c0-0.489-0.24-1.253-0.721-2.284l-1.142-2.285l0.12-0.736l-1.201-1.327
		l-2.945-2.727c-0.321-0.245-0.642-0.564-0.961-0.959c-0.322-0.392-0.691-0.921-1.112-1.584s-0.893-1.388-1.412-2.175h-1.322
		c-1.002,0-1.824-0.098-2.464-0.295l-5.77-3.759l-2.584-0.589l-1.622-0.885l-1.383-0.368l-0.24-1.622
		c-1.082-0.295-1.723-0.442-1.923-0.442c-0.401,0-0.901,0.295-1.502,0.885c-1.283-0.835-2.305-1.326-3.065-1.474
		c-0.841-0.195-1.434-0.332-1.772-0.405c-0.342-0.074-0.602-0.195-0.781-0.369c-0.181-0.171-0.412-0.429-0.691-0.773l-0.962-1.18
		c-0.882,0.59-1.742,0.885-2.584,0.885c-1.042,0-1.863-0.295-2.464-0.885L65.054,52l-3.726-0.737l-8.594-1.326l-4.207,0.442
		l-0.841-0.59l-0.602,0.59l-0.661,1.474l-1.322-0.736l-0.24,2.137c-0.081,2.113-0.3,3.711-0.661,4.791l0.301,1.548
		c0.561,2.358,0.842,3.711,0.842,4.054l-0.121,1.326l-0.721-0.59H44.08c0.08,1.967,0.421,3.538,1.021,4.718v2.063l-0.781-0.147
		c-0.4,0.442-0.762,0.663-1.081,0.663h-0.602l-0.24,1.475l0.842,1.326c0.841,0.395,1.401,0.75,1.683,1.068
		c0.279,0.321,0.421,0.824,0.421,1.512c-0.842,0.441-1.263,0.958-1.263,1.547c0,0.395,0.039,0.64,0.12,0.737l1.263,3.611
		l-0.361,13.119l0.481,1.843l-0.602,3.759l0.481,0.591l-0.241,2.727l0.241,4.054c0,1.032-0.142,1.745-0.421,2.138
		c-0.281,0.396-0.923,0.959-1.923,1.695l0.24,2.211l2.104,1.549v1.769l-0.241,8.918c0.08,0.442,0.21,1.104,0.391,1.989
		c0.181,0.886,0.37,1.746,0.571,2.58c0.24,0.59,0.36,1.131,0.36,1.621c0,0.246-0.16,0.765-0.48,1.547h-1.082
		c-0.802,0-1.463,0.812-1.982,2.435c2.644,0.59,4.606,0.883,5.889,0.883l7.993-0.146l2.824,0.295l9.015-3.17l1.382-0.146l6.731-3.17
		l4.567-2.283l1.862-0.886l1.322-1.399l4.447-2.063l3.426-4.127l1.382-0.737l0.721-1.031l0.721-2.728l2.464-1.694l1.382-2.507
		l2.584-3.687l0.48-1.769c1.241,0,2.043-0.098,2.404-0.295c0.361-0.194,0.541-0.563,0.541-1.104c0-0.688-0.521-1.18-1.562-1.475
		c1.282-1.572,2.233-3.4,2.854-5.491c0.621-2.088,1.091-4.875,1.413-8.365C108.081,87.745,108.581,85.215,109.342,82.807z"/>
	<path fill="#0099CC" d="M184.703,127.027c0,0.641-0.101,1.205-0.3,1.695l-1.202,2.58l-2.824,5.969l-2.584,0.224l-1.623,1.621
		c-0.36,0.44-0.982,0.735-1.863,0.885l-10.817,2.578l-1.683,0.737l-3.846-0.442l-5.529,0.59l-6.25-0.44h-1.743
		c-0.882-0.836-1.423-1.326-1.623-1.476l-5.89-2.58l-1.983-2.282l-3.906-3.318l-3.125-5.085l-1.202-1.253
		c0.481-1.18,0.721-2.234,0.721-3.17c0-0.393-0.081-0.688-0.24-0.885l-1.623-3.168l-0.36-4.201l-0.12-3.391
		c0-1.13,0.219-2.628,0.661-4.496c0.681-2.947,1.241-4.717,1.683-5.307l2.224-3.464l1.142-3.17l2.825-3.316l3.065-4.938l2.704-1.843
		l3.906-3.316l2.584-2.138l0.901-0.737l1.803-0.442l5.469-2.137l4.267-0.59l2.584-1.327l1.262-0.147
		c2.043,0,3.765,1.353,5.168,4.054c0.76-0.098,1.322-0.613,1.683-1.548l1.623,1.695l2.224,1.475l5.048,6.043
		c0.64,0.984,1.131,1.832,1.472,2.543c0.339,0.713,0.681,1.463,1.021,2.248c0.34,0.787,0.64,1.647,0.901,2.58
		c0.26,0.934,0.651,2.358,1.172,4.274l0.481,1.843l-0.601,0.295l-2.344-0.59l-2.584,1.031l-1.983-0.441l-2.223,0.736l-4.207-0.589
		l-4.026,0.294l-4.207-0.884l-6.851,0.147l-3.365-0.147l-8.113,1.326l-2.945-0.147l-4.086,1.476l-1.442,0.367l-0.241,1.77
		c-0.081,1.229-0.221,2.063-0.42,2.506c-0.202,0.441-0.642,0.959-1.322,1.548l0.12,1.399c1.322,1.229,2.022,1.99,2.104,2.285
		l1.562,7.519l0.781,1.843c-0.401,0.492-0.601,0.934-0.601,1.326c0.039,0.1,0.08,0.197,0.12,0.295l2.284,0.885l0.541,1.844
		c0.399,1.721,0.921,2.775,1.562,3.168l3.245,1.621l1.082,2.875c0.561,0.346,1.462,0.615,2.705,0.812l0.841,1.916l1.863,0.295
		l5.168,2.285l4.327-1.031l11.418-2.285l2.464-1.844l3.846-2.874l3.185-5.085c0.561-0.835,1.222-1.253,1.983-1.253
		C184.001,124.744,184.703,125.507,184.703,127.027z M170.52,92.314c0-0.785-0.742-2.432-2.224-4.938l-4.146-3.686l-1.382-1.769
		l-1.983-0.147l-4.567-0.442l-1.082,0.295l-2.584,1.769l-3.305,0.958l-4.207,1.917l-1.623,0.736l-1.923,3.538
		c-1.202,1.031-1.863,1.671-1.983,1.916l-0.24,0.885l7.392,0.663l0.841-0.147l1.382-0.516l1.322,0.368l3.546,0.885h0.18l4.026-0.885
		l1.262-0.368l0.961,1.695h1.382l5.288-1.327l2.164,0.295C170.018,93.862,170.52,93.299,170.52,92.314z"/>
	<path fill="#0099CC" d="M241.374,120.543c0,1.966-0.292,3.611-0.872,4.938c-0.583,1.328-1.273,1.99-2.072,1.99
		c-0.162,0-0.562-0.098-1.203-0.295l-0.781,1.695l-1.08,3.611l-2.704,3.611l-1.263,2.137l-1.684,0.146l-5.589,3.465l-2.584,0.441
		l-4.388,1.844l-3.485-0.811l-5.288,1.547c-0.359,0-2.326-0.467-5.89-1.4c-1.683-0.441-2.745-0.885-3.185-1.326l-2.344-1.842
		l-2.945-2.064c-1.242-0.98-2.253-2.248-3.035-3.795c-0.781-1.549-1.172-2.959-1.172-4.238c0-0.784,0.681-1.854,2.043-3.205
		c1.361-1.352,2.864-2.493,4.507-3.428l1.322,2.138l1.142,6.485l2.165,1.621l3.485,3.316l1.683,0.664l3.245,1.916h2.224l1.442,0.295
		l2.943-1.033l4.93-0.59l2.463-1.547l2.345-1.031c1.481-1.08,2.923-3.304,4.326-6.671c1.399-3.364,2.104-6.423,2.104-9.176
		c0-1.032-0.262-1.94-0.781-2.728l-2.344-4.054l-0.602-1.843l-1.441-0.885l-0.781,1.18l-1.322-0.146l-3.245-0.591h-3.786h-0.962
		l-1.622-2.874c-0.842,1.18-1.523,1.93-2.043,2.248c-0.523,0.32-1.523,0.626-3.005,0.922l-2.104,0.441l-1.201-0.737h-1.502
		l-1.562-1.474l-1.982,0.441l-1.864-1.105l-2.584-1.031c-1.002-0.393-1.863-1.352-2.584-2.875c-0.721-1.521-1.082-3.068-1.082-4.643
		c0-2.406,0.681-4.962,2.043-7.665c1.361-2.701,3.265-5.184,5.71-7.444c1.881-1.769,4.125-3.512,6.729-5.233
		c2.604-1.719,5.057-3.045,7.361-3.979c2.302-0.933,4.195-1.4,5.68-1.4c0.438,0,1.963,0.516,4.567,1.548l1.741,0.737
		c2.724-0.59,4.486-0.885,5.289-0.885c1.121,0,2.014,0.221,2.675,0.663s0.991,0.984,0.991,1.622c0,0.639-0.57,1.536-1.713,2.689
		c-1.143,1.155-2.574,2.225-4.297,3.206l-1.863,1.032l-1.562-0.147l-3.005-0.147l-2.283-0.737l-1.021-2.579h-0.842l-1.021,1.326
		h-1.803h-1.743l-2.464,0.442l-1.863-0.59l-0.961,0.885l-3.847,2.728c-2.688,2.85-4.026,5.43-4.026,7.738
		c0,1.621,0.399,2.679,1.202,3.169l3.966,2.211l1.202,0.812v1.769l1.863,1.253l1.982-2.285l0.961,0.147l10.098-0.884l4.808,1.326
		l2.224-0.442l2.824,2.285l4.207,2.874c0.842,0.689,1.58,2.236,2.225,4.644l0.479,1.99
		C241.014,115.975,241.374,118.529,241.374,120.543z"/>
	<path fill="#0099CC" d="M264.029,77.353c-0.76,2.064-1.201,3.98-1.322,5.749l-0.359,7.297l-1.143,2.506
		c0,0.1-0.01,0.197-0.029,0.295c-0.021,0.1-0.052,0.221-0.091,0.368c0,0.64,0.501,1.327,1.503,2.063l-0.24,2.285v14.299
		l-0.24,11.497l0.841,4.864v2.506l0.239,5.014c-0.201,0.735-1.463,2.187-3.785,4.348l-3.004,2.875
		c-0.481,0.637-1.082,0.957-1.805,0.957c-0.52,0-0.982-0.196-1.381-0.59c-0.4-0.394-0.602-0.812-0.602-1.252
		c0-1.276,0.322-2.775,0.961-4.496l0.48-2.138l-0.601-0.737l0.899-12.381l0.361-1.254l1.562-0.295v-2.357
		c0-1.522-0.101-2.653-0.301-3.392c-0.201-0.737-0.699-1.72-1.502-2.948l0.118-2.433v-0.44l-0.118-1.254
		c0-1.621,0.239-3.069,0.721-4.349l-0.842-1.253l0.121-4.054c0.562-0.393,0.842-0.835,0.842-1.327l-0.121-1.253l-1.742-0.295v-2.211
		l0.119-1.99v-3.021c0-1.326-0.111-2.309-0.33-2.948c-0.219-0.638-0.713-1.326-1.473-2.063c0.52-1.719,1.705-3.217,3.547-4.496
		l5.769-4.054C262.166,75.142,263.148,75.929,264.029,77.353z M267.635,38.29c0,1.082-0.219,1.795-0.66,2.138l-4.387,3.906
		l-1.744,2.138l-3.184,2.653c-2.125,1.916-3.404,2.874-3.848,2.874c-0.201,0-0.41-0.158-0.631-0.479
		c-0.22-0.319-0.33-0.65-0.33-0.995c0-1.13,0.239-1.99,0.721-2.58l6.191-7.223l3.305-5.454c0.479-0.295,1.021-0.442,1.623-0.442
		c0.801,0,1.492,0.332,2.072,0.995C267.343,36.484,267.635,37.309,267.635,38.29z"/>
	<path fill="#0099CC" d="M345.279,161.448c0,2.211-0.982,5.942-2.945,11.202l-0.359,1.474c-0.682,0.54-1.104,0.983-1.262,1.328
		c-0.16,0.342-0.723,1.473-1.684,3.389l-1.502,2.875l-0.842,0.147l-1.502,1.769l-2.226,1.695c-0.279,0.245-0.802,0.983-1.562,2.211
		l-11.959,7.149l-1.142,0.146l-3.308,1.621l-7.391,1.105l-5.408,1.918l-6.371-0.148l-1.383,0.295l-1.322-0.885l-1.141,0.295h-3.186
		l-2.463,0.295l-4.328-2.58l-5.047-1.031l-4.629-4.201l-3.125-1.842c-0.678-0.787-1.322-2.176-1.922-4.164
		c-0.603-1.99-0.902-3.771-0.902-5.344c0-0.788,0.502-2.506,1.502-5.16l0.602-1.621l0.961-1.031l1.504-0.664l3.064-3.905
		l4.688-2.285l1.263-0.885c0.321,0,0.603,0.173,0.842,0.518c0.24,0.343,0.358,0.785,0.358,1.326c0,0.392-0.079,0.638-0.239,0.735
		l-3.847,4.351l-0.602,1.695l-0.6,1.987l-0.24,1.181l0.24,1.989c-1.002,0.886-1.502,1.521-1.502,1.916
		c0,0.246,0.299,0.812,0.9,1.695l0.36-0.295l1.321,0.885c0.562,1.375,0.939,2.187,1.142,2.433l5.289,4.055l1.082,1.99l2.104,0.883
		c1.121,0.394,2.021,0.59,2.703,0.59h0.36l2.703-0.295l3.967,0.886l1.863-0.441l8.715,0.146l2.942-0.886l7.634-2.137l5.168-2.433
		l2.465-0.147l1.262-1.179l0.722-1.328l1.863-1.399l3.186-2.728l1.201-0.59v-1.326c1.403-0.885,2.104-1.795,2.104-2.727v-0.295
		l-0.48-2.432l1.623-7.74l0.119-1.621l-1.262-0.736l-0.361-1.549l-2.463-6.191l-0.24-1.916c-0.399-1.03-2.004-2.037-4.809-3.021
		l-1.201-0.516l-2.885-0.886l-3.186,0.148l-2.104-0.59l-5.047,0.146l-2.945-1.621l-2.584,1.475
		c-0.881,0.688-2.104,1.031-3.666,1.031h-4.325h-2.104c-1.646-0.885-2.705-1.326-3.187-1.326l-0.479,0.295l-2.345,1.842
		l-0.479,0.295c-1.002,0-3.187-0.811-6.551-2.432c-1.481-0.738-3.045-1.895-4.688-3.465l-0.479-1.695
		c-0.562-1.768-0.843-3.463-0.843-5.084c0-1.475,0.398-2.629,1.201-3.465l3.605-3.98l1.203-1.326l1.863-1.18l1.981-1.4l2.224-0.293
		c1.002-0.295,1.983-1.203,2.944-2.729h-1.143l-1.562,0.146l-2.104,0.147c-0.842,0-1.984-0.442-3.426-1.325l-1.262-0.738
		l-0.843-1.547l-0.36-1.621c-0.039-0.541-0.353-1.008-0.933-1.4s-1.353-0.639-2.312-0.736l-0.842-1.99l-1.082-1.916
		c-0.279-0.295-0.42-0.858-0.42-1.695v-1.18l0.54-3.17l0.119-3.463l1.322-3.021l0.239-4.864c0.039-0.343,0.941-1.695,2.705-4.054
		l1.381-1.843c0.121-0.147,0.281-0.295,0.482-0.442s0.32-0.245,0.359-0.295l1.744-1.032l0.961-1.253
		c1.441-1.769,2.473-2.922,3.094-3.464c0.623-0.54,1.434-0.884,2.436-1.031l0.539-0.885l1.443-0.368l10.336-2.801l10.697,1.326
		l2.584-2.137c1.283-0.982,2.322-1.475,3.125-1.475c0.16,0,0.279,0.013,0.361,0.037c0.08,0.025,0.157,0.062,0.239,0.11l2.945,0.59
		l6.01-0.147c0.802,0.1,1.541,0.663,2.224,1.695c1.082-0.54,1.662-0.958,1.742-1.253l0.602-2.285
		c0.039-0.295,0.621-0.663,1.742-1.105s2.344-0.908,3.666-1.4l1.143-0.516l0.842,1.4c-0.201,1.179-0.43,2.076-0.691,2.689
		c-0.262,0.616-0.67,1.18-1.231,1.695c-0.562,0.517-1.283,1.021-2.164,1.511l-1.2,0.737c-0.121,1.132-0.291,1.868-0.513,2.211
		c-0.219,0.345-0.789,0.91-1.713,1.695l-1.861,1.695c-0.321,0.197-0.803,0.295-1.442,0.295l-2.224-0.147l-2.584-0.147l-1.743,0.147
		H324l-0.121,0.737c1.361,0.884,2.336,1.721,2.916,2.506c0.58,0.786,1.029,1.868,1.352,3.242l1.143,0.885v3.316h-0.78l-0.121,0.959
		l-1.201,0.589l0.841,1.77c0.321,0.736,0.481,1.303,0.481,1.694c0,0.688-0.16,1.229-0.481,1.622l-2.584,3.979l-0.722,1.327
		l-4.808,5.159l-0.842,1.77c-0.399,0.64-1.522,1.547-3.365,2.728l-3.547,2.433c-1.721,1.18-4.807,2.039-9.254,2.579l-0.36,0.884
		l0.121,1.844c0,1.082-0.279,1.621-0.843,1.621l-3.785,0.736l-2.465,1.695l-2.885,0.885c-1.082,0.346-2.063,1.217-2.945,2.616
		c-0.879,1.399-1.319,2.688-1.319,3.869l0.119,1.399l2.704,2.875l1.201-0.664l5.168,0.812l3.847-0.517l2.225,1.4l0.962,0.148h0.36
		l1.742-1.844c0.842-0.688,1.862-1.031,3.063-1.031h7.152h0.721l1.502,1.326l0.842,0.664c0.562,0,1.104-0.711,1.623-2.14
		l2.104,0.147c2.803,0.146,4.349,0.346,4.627,0.591l1.981,1.252l4.688,1.771l1.863,1.399l-0.119,2.062
		c0.64,0.246,1.043,0.764,1.201,1.549l1.502-0.147l1.321-0.146c0.925,0,1.584,0.687,1.984,2.063l0.359,2.283l1.984,8.771
		L345.279,161.448z M319.559,103.665l-0.121-3.021v-1.771c0-2.996-0.319-4.765-0.961-5.307l-3.244-3.685l-1.562-2.875l-4.688-2.801
		l-1.743-0.811l-1.562-0.295l-2.104,1.253l-1.503-0.295l-1.741-0.368l-0.843,0.147l-2.823,1.548H294.8l-1.803,1.179l-1.144,0.664
		l-2.942,3.759c-0.882,0.836-1.435,1.573-1.652,2.211c-0.221,0.64-0.45,1.966-0.69,3.979l-0.48,4.054l0.24,1.695v1.327
		c0.039,0.64,0.189,1.142,0.449,1.511c0.262,0.368,0.893,0.922,1.895,1.658l-0.361,1.99c0,1.131,0.24,1.77,0.721,1.916l2.466,1.4
		l3.184,3.021c0.685,0.492,1.525,0.837,2.525,1.032c1,0.197,2.502,0.295,4.506,0.295c1.924,0,3.446-0.295,4.567-0.885l4.566-2.434
		l2.584-0.589l1.684-1.989l2.824-2.58l1.021-3.611L319.559,103.665z"/>
	<path fill="#0099CC" d="M398.465,137.126l-0.602,2.138l-8.293,4.864c-1.121-1.771-1.684-2.875-1.684-3.315v-0.369l1.442-7.076
		l0.119-3.168l0.481,0.146l1.021-1.475c-0.279-0.785-0.551-1.301-0.812-1.548c-0.262-0.245-0.729-0.54-1.412-0.884l-0.24-1.181
		l0.962-13.782l-0.601-1.916l0.119-2.433v-5.603l0.723-2.727l-1.082-1.327l0.119-4.422c-0.44-1.621-1.18-3.169-2.223-4.644v-0.737
		c0-0.637-0.16-1.105-0.48-1.399l-1.504-0.147l-3.063-2.285l-4.929,0.368l-5.647-0.516c-0.479,0.295-1.021,0.91-1.623,1.843
		l-1.082-0.295l-4.688,1.032l-1.682,0.441l-2.104,1.99l-2.705,1.475c-1.322,0.786-2.064,1.966-2.223,3.537l-0.121,7.223
		l-0.781,4.496l1.262,4.422v2.359l-0.119,8.771l-1.143,3.021l-0.119,1.104v0.442l1.141,2.358l0.361,8.033l0.48,2.58
		c0,0.295-0.121,0.677-0.361,1.143c-0.24,0.469-0.561,0.799-0.961,0.994l-3.967,1.18l-1.082,0.295
		c-0.639,1.326-1.262,1.99-1.861,1.99c-0.4,0-0.82-0.271-1.264-0.811c-0.039-0.101-0.09-0.198-0.148-0.295
		c-0.061-0.101-0.131-0.199-0.211-0.295c-0.16-0.396-0.24-0.541-0.24-0.443l0.9-5.453l-0.119-6.191l0.6-2.506l-0.479-4.127
		l0.239-4.496L346.9,110c0-1.275,0.699-1.988,2.104-2.137c-0.121-1.08-0.33-1.756-0.631-2.027c-0.302-0.27-0.953-0.404-1.953-0.404
		l0.119-13.268l1.321-1.031l-0.721-1.548l-1.623-5.381l-1.082-1.695l0.724-1.621l1.262-1.843l2.162-1.179l2.104-1.99
		c0.602-0.59,1.344-0.885,2.225-0.885c0.52,0,1.021,0.185,1.502,0.553c0.48,0.369,0.76,0.774,0.842,1.217l0.119,6.928l0.24,2.285
		l1.143-0.442c1.443-2.161,3.135-4.188,5.078-6.081c1.943-1.89,3.396-2.837,4.357-2.837c0.52,0,0.938,0.516,1.262,1.548
		c0.803-0.295,1.742-0.859,2.824-1.695c1.162-0.785,2.143-1.18,2.945-1.18h0.358l4.93,0.59l1.861-0.737l5.528,0.885
		c1.886,0.295,3.365,1.105,4.447,2.433l0.842-0.147c1.283,0,2.345,0.688,3.187,2.063l0.899,1.843l1.201,2.432
		c0.562,0.837,0.843,2.63,0.843,5.381v4.127l0.239,1.769l-1.44,2.285l0.479,1.843l0.722,1.621v1.695v1.326
		c0,0.395-0.039,0.688-0.119,0.885l-0.842,2.138c-0.16,0.396-0.24,1.105-0.24,2.137l1.201,1.918l-0.119,2.137l-0.121,5.158v0.591
		l0.902,2.875l0.118,6.633L398.465,137.126z"/>
</g>
<rect id="_x3C_Slice_x3E_" fill="none" width="400" height="200"/>
</svg>
