<?xml version="1.0" encoding="utf-8"?>
<!-- Generator: Adobe Illustrator 16.0.4, SVG Export Plug-In . SVG Version: 6.00 Build 0)  -->
<!DOCTYPE svg PUBLIC "-//W3C//DTD SVG 1.1//EN" "http://www.w3.org/Graphics/SVG/1.1/DTD/svg11.dtd">
<svg version="1.1" id="Layer_1" xmlns="http://www.w3.org/2000/svg" xmlns:xlink="http://www.w3.org/1999/xlink" x="0px" y="0px"
	 width="400px" height="200px" viewBox="0 0 400 200" enable-background="new 0 0 400 200" xml:space="preserve">
<g>
	<path fill="#0000CC" d="M368.593,88.223c-3.64,1.778-33.755,21.056-33.755,21.056l-30.706,15.543l-25.694,10.238l-28.242,7.291
		l-24.01,6.041c0.011-0.672,0.024-1.369,0.024-2.051c0.012-8.242-0.872-16.055-2.438-23.053l0.727,1.533
		c0,0,29.147-7.468,28.949-8.357c-0.169-0.767,4.13-3.554,5.31-4.133c-2.355,0.599-18.405,3.544-18.405,3.544
		s-14.226-0.539-17.241,0.265c-4.085-15.747-11.81-32.408-20.821-32.408h0.175L200.104,0h-0.649l-1.709,83.733h1.061
		c-13.341,0-23.908,29.489-23.944,57.933c0,0.815,0.011,3.851,0.023,4.669l-6.376-0.171c0,0-10.136-0.623-23.621-2.807
		c-13.482-2.133-36.709-11.122-40.642-11.52c-3.937-0.399-50.69-23.686-51.079-24.072c-0.396-0.395-14.271-8.987-20.375-12.132
		c-6.104-3.155-32.28-31.856-32.28-31.856c1.177,4.136,28.538,33.88,32.479,38.013c3.934,4.136,49.497,29.533,49.497,29.533
		s29.241,13.188,35.831,15.733c1.506,0.606,3.268,1.374,5.094,2.239c-0.19-0.023-0.371-0.066-0.565-0.066
		c-7.016,0-12.696,11.104-12.696,24.794c0,13.708,5.681,24.794,12.696,24.794c7.005,0,12.693-11.086,12.693-24.794
		c0-9.856-2.955-18.353-7.228-22.353c4.414,2.237,8.115,4.251,8.115,4.251c17.024,2.958,33.995,14.311,39.859,17.725
		c5.86,3.41-0.881-10.097-0.914-16.662c2.372,24.485,12.693,42.958,25.089,43.016c11.031,0.062,20.455-14.448,24.119-34.912
		c0.086,2.238-4.971,14.753,0.612,6.386c5.587-8.372,20.378-9.241,25.104-12.015c4.724-2.739,19.188-10.229,20.37-10.815
		c1.184-0.586,21.847-9.443,21.847-9.443s57.576-29.921,61.02-34.242c3.448-4.34,43.603-32.285,45.28-44.686
		C398.813,60.272,372.238,86.445,368.593,88.223z"/>
	<path fill="#0000CC" d="M258.757,112.332c0.19-0.062,0.312-0.082,0.299-0.096C259.046,112.214,258.931,112.25,258.757,112.332z"/>
	<polygon fill="#0000CC" points="177.273,121.678 140.265,114.602 176.329,127.794 	"/>
	<path fill="#0000CC" d="M277.858,143.377c-7.51,0-13.582,11.551-13.582,25.786c0,14.24,6.072,25.776,13.582,25.776
		c7.497,0,13.574-11.536,13.574-25.776C291.434,154.921,285.355,143.377,277.858,143.377z"/>
</g>
</svg>
